<svg id="Filled" height="512" viewBox="0 0 512 512" width="512" xmlns="http://www.w3.org/2000/svg"><path d="m389.037 303.105c-3.381 8.164-22.292 9.669-27.056 16.715s1.129 24.8-4.793 30.636-23.66-.251-30.516 4.279-8 23.169-15.567 26.3-21.554-9.236-29.606-7.592-16.29 18.494-24.599 18.557-16.7-16.661-25.052-18.274-22.787 10.694-30.951 7.313-9.669-22.293-16.714-27.057-24.8 1.13-30.637-4.793.252-23.66-4.279-30.516-23.168-8-26.3-15.567 9.236-21.554 7.591-29.605-18.497-16.292-18.558-24.601 16.66-16.7 18.274-25.052-10.695-22.787-7.313-30.951 22.293-9.669 27.057-16.715-1.13-24.8 4.792-30.636 23.66.252 30.517-4.279 8-23.169 15.566-26.3 21.554 9.236 29.606 7.592 16.29-18.498 24.601-18.559 16.7 16.661 25.052 18.274 22.787-10.694 30.951-7.313 9.669 22.293 16.715 27.057 24.8-1.129 30.636 4.793-.252 23.66 4.279 30.516 23.168 8 26.3 15.567-9.235 21.554-7.591 29.606 18.491 16.29 18.553 24.6-16.661 16.7-18.274 25.053 10.698 22.789 7.316 30.952z" fill="#ff750a"/><circle cx="255.999" cy="247.999" fill="#ffd33a" r="88"/><path d="m24 280h464v208h-464z" fill="#2d85cc"/><path d="m464 48a24.326 24.326 0 0 0 -3.237.223 40.009 40.009 0 0 0 -73.526 0 24.35 24.35 0 0 0 -3.237-.223 24 24 0 1 0 12.148 44.7 39.964 39.964 0 0 0 55.7 0 24 24 0 1 0 12.152-44.7z" fill="#a3d4f7"/><path d="m488 272h-97.408a66.052 66.052 0 0 1 5.747-5.953c5.492-5.236 11.717-11.172 11.661-19.005-.057-7.861-6.417-13.742-12.027-18.932-2.289-2.117-6.1-5.641-6.678-7.211-.074-1.665 2.082-6.36 3.378-9.181 3.16-6.879 6.741-14.675 3.755-21.9-2.991-7.2-11.036-10.182-18.133-12.811-2.907-1.077-7.743-2.868-8.877-4.1-.7-1.526-.5-6.711-.377-9.827.3-7.636.632-16.289-4.886-21.894-5.5-5.575-14.1-5.364-21.689-5.187-3.275.08-8.754.21-10.141-.595-1.309-1.011-3.32-6.116-4.521-9.166-2.873-7.3-6.13-15.566-13.636-18.676s-15.649.439-22.836 3.564c-3 1.307-8.041 3.478-9.637 3.288-1.607-.421-5.389-4.389-7.649-6.759-5.213-5.467-11.117-11.66-18.9-11.66h-.1c-7.862.057-13.744 6.416-18.933 12.027-2.117 2.289-5.641 6.1-7.21 6.678-1.679.029-6.361-2.083-9.182-3.379-6.879-3.158-14.677-6.738-21.9-3.755-7.2 2.991-10.183 11.036-12.812 18.134-1.077 2.907-2.868 7.743-4.1 8.876-1.526.7-6.711.5-9.827.378-7.636-.3-16.29-.633-21.893 4.886-5.575 5.5-5.369 14.1-5.188 21.69.079 3.274.21 8.753-.594 10.14-1.011 1.308-6.117 3.319-9.167 4.52-7.3 2.874-15.566 6.131-18.676 13.636s.438 15.65 3.564 22.837c1.307 3 3.493 8.032 3.288 9.637-.42 1.606-4.388 5.388-6.758 7.648-5.492 5.236-11.717 11.172-11.661 19 .057 7.861 6.417 13.742 12.027 18.932 1.231 1.138 2.9 2.681 4.269 4.11h-96.293a8 8 0 0 0 -8 8v208.01a8 8 0 0 0 8 8h464a8 8 0 0 0 8-8v-208a8 8 0 0 0 -8-8zm-349.611-.1c-1.286-6.316-6.478-11.117-11.5-15.76-2.282-2.11-6.013-5.56-6.811-7.3.767-1.728 4.4-5.192 6.622-7.31 5-4.769 10.176-9.7 11.422-16.17 1.227-6.322-1.594-12.806-4.321-19.077-1.295-2.978-3.683-8.47-3.435-10.328 1.141-1.49 6.714-3.685 9.737-4.875 6.357-2.5 12.931-5.093 16.545-10.427 3.686-5.459 3.515-12.6 3.35-19.5-.074-3.07-.194-8.09.484-9.857 1.8-.665 6.876-.469 9.98-.348 6.834.265 13.9.54 19.278-3.014 5.425-3.586 7.889-10.238 10.272-16.67 1.037-2.8 2.725-7.358 3.981-8.812 1.915.141 6.33 2.168 9.045 3.415 6.237 2.865 12.688 5.832 19.057 4.523 6.316-1.286 11.117-6.478 15.76-11.5 2.11-2.282 5.56-6.013 7.3-6.811 1.726.768 5.19 4.4 7.308 6.621 4.77 5 9.7 10.177 16.17 11.422 6.322 1.228 12.806-1.594 19.077-4.32 2.98-1.3 8.485-3.675 10.329-3.435 1.49 1.141 3.685 6.714 4.875 9.737 2.5 6.358 5.092 12.931 10.426 16.544 5.46 3.688 12.6 3.516 19.506 3.351 3.068-.074 8.088-.193 9.856.483.666 1.8.469 6.876.348 9.982-.265 6.832-.539 13.9 3.014 19.278 3.587 5.424 10.238 7.888 16.67 10.271 2.8 1.037 7.358 2.725 8.812 3.98-.14 1.916-2.169 6.331-3.415 9.046-2.865 6.238-5.828 12.689-4.523 19.057 1.286 6.316 6.478 11.117 11.5 15.76 2.282 2.11 6.013 5.56 6.811 7.3-.767 1.728-4.4 5.192-6.622 7.31-5 4.769-10.176 9.7-11.419 16.158-.09.459-.143.917-.191 1.375h-24.74a96 96 0 1 0 -185.9 0h-24.642c-.005-.031-.005-.064-.016-.099zm41.295.1a80 80 0 1 1 152.632 0zm-147.684 208v-64h96a8 8 0 0 0 0-16h-96v-80h168a8 8 0 0 0 0-16h-168v-16h448v88h-88a8 8 0 0 0 0 16h88v88z"/><path d="m264 344h88a8 8 0 0 0 0-16h-88a8 8 0 0 0 0 16z"/><path d="m176 448h-32a8 8 0 0 0 0 16h32a8 8 0 0 0 0-16z"/><path d="m296 384a8 8 0 0 0 -8-8h-80a8 8 0 0 0 0 16h80a8 8 0 0 0 8-8z"/><path d="m352 376h-16a8 8 0 0 0 0 16h16a8 8 0 0 0 0-16z"/><path d="m424 424h-192a8 8 0 0 0 0 16h192a8 8 0 0 0 0-16z"/><path d="m152.637 75.128a8 8 0 0 0 14.726 0c11.761-27.69 21.195-27.281 24.287-27.141a8 8 0 0 0 .7-15.987c-15.015-.66-25.213 9.965-32.35 22-7.137-12.035-17.339-22.673-32.35-22a8 8 0 1 0 .7 15.984c3.099-.136 12.526-.545 24.287 27.144z"/><path d="m56.637 123.128a8 8 0 0 0 14.726 0c11.762-27.69 21.193-27.277 24.287-27.141a8 8 0 0 0 .7-15.987c-15.025-.672-25.213 9.965-32.35 22-7.137-12.035-17.345-22.687-32.35-22a8 8 0 1 0 .7 15.984c3.098-.138 12.526-.544 24.287 27.144z"/><path d="m465.6 40.039a48.011 48.011 0 0 0 -83.2 0 32 32 0 1 0 12.425 62.073 47.979 47.979 0 0 0 58.346 0 32 32 0 1 0 12.429-62.073zm-1.6 47.961a15.972 15.972 0 0 1 -8.091-2.2 8 8 0 0 0 -9.629 1.155 31.966 31.966 0 0 1 -44.56 0 8 8 0 0 0 -9.629-1.155 16 16 0 1 1 -8.091-29.8 16.217 16.217 0 0 1 2.162.151 8 8 0 0 0 8.425-4.769 32.009 32.009 0 0 1 58.826 0 7.993 7.993 0 0 0 8.425 4.769 16.217 16.217 0 0 1 2.162-.151 16 16 0 0 1 0 32z"/></svg>